<svg t="1757326133632" class="icon" viewBox="0 0 1024 1024" version="1.1" xmlns="http://www.w3.org/2000/svg" p-id="1095" width="30" height="30"><path d="M596.8 872c0 48.4-38.35 88-85.22 88s-85.22-39.6-85.22-88 38.35-88 85.22-88 85.22 39.6 85.22 88z m-85.22-336.42c-76.7 0-149.13 33.01-204.52 89.6-17.04 18.86-17.04 47.16-2.13 66.02 17.04 18.86 42.61 18.86 59.65 2.36 40.48-40.08 91.61-63.66 147-63.66s106.52 23.58 147 63.66c8.52 9.43 19.17 14.15 29.82 14.15 10.65 0 23.43-4.72 31.96-14.15 17.04-18.86 14.91-49.51-2.13-66.02-57.52-58.95-129.95-91.96-206.65-91.96z m0-235.79c-132.09 0-255.65 54.23-351.52 155.62-17.04 18.86-17.04 47.16-2.13 66.02 17.05 18.86 42.61 18.86 59.66 2.36 80.95-84.89 185.35-129.68 294-129.68s213.04 44.8 294 129.68c6.39 7.08 17.04 11.79 27.7 11.79 10.65 0 23.44-4.71 31.95-14.15 17.05-18.86 14.92-49.51-2.13-66.02-95.87-101.39-219.44-155.62-351.53-155.62z m498.52-16.51C873.76 141.81 696.93 64 511.58 64c-185.35 0-362.17 77.81-498.52 219.28-17.04 18.87-17.04 47.16-2.13 66.02 17.04 18.86 44.74 21.22 61.78 2.36C192.02 226.7 347.54 158.31 511.58 158.31s319.56 68.38 438.87 193.35c8.52 9.43 19.17 11.79 29.82 11.79 10.65 0 23.43-4.72 31.96-14.15 17.05-18.86 14.92-49.51-2.13-66.02z" p-id="1096"></path></svg>